# xmcd CD database file
#
# Track frame offsets:
#	150
#	23153
#	43851
#	70953
#	95433
#	122293
#	148258
#	173419
#
# Disc length: 2587 seconds
#
# Revision: 0
# Processed by: cddbd v1.5.2PL0 Copyright (c) Steve Scherf et al.
# Submitted via: CDex 1.70beta1
#
DISCID=660a1908
DTITLE=Ultimix - Back Spins 01
DYEAR=2008
DGENRE=Ultimix
TTITLE0=Bee gees - Stayin' Alive (Ultimix BS 102 bpm)
TTITLE1=Egyptian Lover - Egypt Egypt (Ultimix BS 127 bpm)
TTITLE2=Debbie Deb - Lookout Weekend (Ultimix BS 127 bpm)
TTITLE3=Will To Power - Dreamin' (Ultimix BS 125 bpm)
TTITLE4=Bee Gees - You Should Be Dancing (Ultimix BS 123 bpm)
TTITLE5=Linear - Sending All My Love (Ultimix BS 101 bpm)
TTITLE6=Miami Sound Machine - Conga (Ultimix BS 122 bpm)
TTITLE7=Acid Factory - Fantasy (Ultimix BS 134 bpm)
EXTD=YEAR: 2008
EXTT0=
EXTT1=
EXTT2=
EXTT3=
EXTT4=
EXTT5=
EXTT6=
EXTT7=
PLAYORDER=
